<?xml version="1.0" encoding="utf-8"?>
<svg xml:space="preserve" viewBox="0 0 100 100" y="0" x="0" xmlns="http://www.w3.org/2000/svg" id="Layer_1" version="1.1" style="height: 100%; width: 100%; background: rgb(0, 0, 0) none repeat scroll 0% 0%; shape-rendering: auto;" width="207px" height="207px"><g style="transform-origin: 50% 50% 0px; transform: rotate(0deg) scale(0.37);" class="ldl-scale"><g class="ldl-ani" style="transform-origin: 50px 50px 0px; transform: rotate(0deg); animation: 0.671141s linear 0s infinite normal forwards running spin-a26892c9-e048-4a85-8041-4cb54488bca8;"><g class="ldl-layer"><g class="ldl-ani" style="transform-origin: 50px 50px 0px;"><g><g class="ldl-layer"><g class="ldl-ani" style="transform-origin: 50px 50px 0px;"><path fill="#f7b26a" d="M50 92.5c-9 0-17.7-2.8-25-8.1l8.8-12.1c4.7 3.4 10.3 5.3 16.2 5.3s11.5-1.8 16.2-5.3L75 84.4c-7.3 5.3-16 8.1-25 8.1z" style="fill: rgb(0, 159, 10);"></path></g></g></g></g></g><g class="ldl-layer"><g class="ldl-ani" style="transform-origin: 50px 50px 0px;"><g><g class="ldl-layer"><g class="ldl-ani" style="transform-origin: 50px 50px 0px;"><path fill="#acbd81" d="M75 84.4l-8.8-12.1c7.1-5.2 11.4-13.5 11.4-22.3 0-2.9-.5-5.8-1.3-8.5l14.2-4.6c1.4 4.2 2.1 8.7 2.1 13.1C92.5 63.5 86 76.4 75 84.4z" style="fill: rgb(255, 255, 255);"></path></g></g></g></g></g><g class="ldl-layer"><g class="ldl-ani" style="transform-origin: 50px 50px 0px;"><g><g class="ldl-layer"><g class="ldl-ani" style="transform-origin: 50px 50px 0px;"><path fill="#e15c64" d="M23.8 41.5L9.6 36.9C15.3 19.3 31.5 7.5 50 7.5v14.9c-12 0-22.5 7.7-26.2 19.1z" style="fill: rgb(223, 40, 29);"></path></g></g></g></g></g><g class="ldl-layer"><g class="ldl-ani" style="transform-origin: 50px 50px 0px;"><g><g class="ldl-layer"><g class="ldl-ani" style="transform-origin: 50px 50px 0px;"><path fill="#f47e5f" d="M25 84.4C14 76.4 7.5 63.5 7.5 50c0-4.5.7-8.9 2.1-13.1l14.2 4.6c-.9 2.8-1.3 5.6-1.3 8.5 0 8.8 4.2 17.1 11.4 22.3L25 84.4z" style="fill: rgb(0, 159, 10);"></path></g></g></g></g></g><g class="ldl-layer"><g class="ldl-ani" style="transform-origin: 50px 50px 0px;"><g><g class="ldl-layer"><g class="ldl-ani" style="transform-origin: 50px 50px 0px;"><path fill="#849b87" d="M76.2 41.5c-3.7-11.4-14.2-19-26.2-19v-15c18.5 0 34.7 11.8 40.4 29.4l-14.2 4.6z" style="fill: rgb(223, 40, 29);"></path></g></g></g></g></g><metadata xmlns:d="https://loading.io/stock/"><d:name>pie</d:name><d:tags>chart,donut,percent,proportion,ratio,ring,pie,spinner</d:tags><d:license>by</d:license><d:slug>2ea03a</d:slug></metadata></g></g><style id="spin-a26892c9-e048-4a85-8041-4cb54488bca8" data-anikit="">@keyframes spin-a26892c9-e048-4a85-8041-4cb54488bca8
{
  0% {
    animation-timing-function: cubic-bezier(0.5856,0.0703,0.4143,0.9297);
    transform: rotate(0deg);
  }
  100% {
    transform: rotate(360deg);
  }
}</style><!-- [ldio] generated by https://loading.io/ --></svg>